# xmcd CD database file
#
# Track frame offsets:
#	150
#	20367
#	40170
#	57755
#	74315
#	92257
#	108022
#	125512
#	141742
#	161812
#	180992
#	195130
#
# Disc length: 2822 seconds
#
# Revision: 1
# Processed by: cddbd v1.5.2PL0 Copyright (c) Steve Scherf et al.
# Submitted via: CDex 1.70beta2
#
DISCID=950b040c
DTITLE=Jakub Smolik - Unknown CD for MusicBrainz and FreeDB
DYEAR=2002
DGENRE=Country
TTITLE0=Kdyz andele placou
TTITLE1=Nejsi ma
TTITLE2=Pan buh rekl vratte se
TTITLE3=Nezavolam
TTITLE4=Ma Lady
TTITLE5=Holka s bilou halenkou
TTITLE6=Dopisy lasky
TTITLE7=Co na tom
TTITLE8=Ameriko
TTITLE9=Zpoved
TTITLE10=Postak
TTITLE11=Ja uz nebudu kovboj
EXTD=YEAR: 2002
EXTT0=
EXTT1=
EXTT2=
EXTT3=
EXTT4=
EXTT5=
EXTT6=
EXTT7=
EXTT8=
EXTT9=
EXTT10=
EXTT11=
PLAYORDER=
